<svg width="88" height="88" viewBox="0 0 88 88" fill="none" xmlns="http://www.w3.org/2000/svg">
<circle cx="44" cy="44" r="43.4" stroke="black" stroke-width="1.2"/>
<path d="M31.776 61V57.736L45.456 44.536C46.672 43.384 47.568 42.376 48.144 41.512C48.752 40.616 49.152 39.8 49.344 39.064C49.568 38.296 49.68 37.56 49.68 36.856C49.68 35.128 49.072 33.768 47.856 32.776C46.64 31.784 44.864 31.288 42.528 31.288C40.736 31.288 39.12 31.592 37.68 32.2C36.24 32.776 34.992 33.688 33.936 34.936L30.672 32.104C31.952 30.472 33.664 29.224 35.808 28.36C37.984 27.464 40.368 27.016 42.96 27.016C45.296 27.016 47.328 27.4 49.056 28.168C50.784 28.904 52.112 29.976 53.04 31.384C54 32.792 54.48 34.456 54.48 36.376C54.48 37.464 54.336 38.536 54.048 39.592C53.76 40.648 53.216 41.768 52.416 42.952C51.616 44.136 50.464 45.464 48.96 46.936L36.768 58.696L35.616 56.824H55.92V61H31.776Z" fill="black"/>
</svg>
