<svg width="88" height="88" viewBox="0 0 88 88" fill="none" xmlns="http://www.w3.org/2000/svg">
<circle cx="44" cy="44" r="43.4" stroke="black" stroke-width="1.2"/>
<path d="M42.576 61.384C40.208 61.384 37.904 61.016 35.664 60.28C33.456 59.544 31.648 58.552 30.24 57.304L32.448 53.512C33.568 54.568 35.024 55.432 36.816 56.104C38.608 56.776 40.528 57.112 42.576 57.112C45.072 57.112 47.008 56.584 48.384 55.528C49.792 54.44 50.496 52.984 50.496 51.16C50.496 49.4 49.824 47.992 48.48 46.936C47.168 45.848 45.072 45.304 42.192 45.304H39.504V41.944L49.488 29.656L50.16 31.576H31.776V27.4H53.952V30.664L44.016 42.904L41.52 41.416H43.104C47.168 41.416 50.208 42.328 52.224 44.152C54.272 45.976 55.296 48.296 55.296 51.112C55.296 53 54.832 54.728 53.904 56.296C52.976 57.864 51.568 59.112 49.68 60.04C47.824 60.936 45.456 61.384 42.576 61.384Z" fill="black"/>
</svg>
