<svg width="194" height="194" viewBox="0 0 194 194" fill="none" xmlns="http://www.w3.org/2000/svg">
<path d="M101.322 3.05176e-05H91.9746V193.296H101.322V3.05176e-05Z" fill="#19223F"/>
<path d="M193.296 91.9746H0V101.322H193.296V91.9746Z" fill="#19223F"/>
<path d="M31.5951 24.9964L24.9858 31.6057L161.665 168.285L168.275 161.676L31.5951 24.9964Z" fill="#19223F"/>
<path d="M161.666 24.995L24.9858 161.675L31.5951 168.284L168.275 31.6043L161.666 24.995Z" fill="#19223F"/>
<path d="M8.93336 55.8856L5.40674 64.5418L184.418 137.472L187.945 128.816L8.93336 55.8856Z" fill="#19223F"/>
<path d="M128.815 5.41942L55.8848 184.431L64.541 187.958L137.472 8.94605L128.815 5.41942Z" fill="#19223F"/>
<path d="M184.63 56.2112L5.30957 128.388L8.79974 137.059L188.121 64.8824L184.63 56.2112Z" fill="#19223F"/>
<path d="M64.8426 5.31283L56.1714 8.80206L128.329 188.123L137 184.634L64.8426 5.31283Z" fill="#19223F"/>
</svg>
