<svg width="23" height="23" viewBox="0 0 23 23" fill="none" xmlns="http://www.w3.org/2000/svg">
<path fill-rule="evenodd" clip-rule="evenodd" d="M11.5 20.8437L12.7476 21.5625L15.2121 17.25H18.6875C19.0651 17.2501 19.439 17.1757 19.7878 17.0313C20.1366 16.8868 20.4536 16.6751 20.7206 16.4081C20.9876 16.1411 21.1993 15.8241 21.3438 15.4753C21.4882 15.1265 21.5626 14.7526 21.5625 14.375V5.75C21.5626 5.37242 21.4883 4.99851 21.3439 4.64965C21.1994 4.30079 20.9877 3.98381 20.7207 3.71682C20.4537 3.44982 20.1367 3.23806 19.7878 3.09362C19.439 2.94917 19.0651 2.87489 18.6875 2.875H4.3125C3.93492 2.87489 3.56101 2.94917 3.21215 3.09362C2.86329 3.23806 2.54631 3.44982 2.27932 3.71682C2.01232 3.98381 1.80056 4.30079 1.65612 4.64965C1.51167 4.99851 1.43739 5.37242 1.4375 5.75V14.375C1.43743 14.7526 1.51175 15.1265 1.65621 15.4753C1.80067 15.8241 2.01244 16.1411 2.27942 16.4081C2.5464 16.6751 2.86337 16.8868 3.21221 17.0313C3.56105 17.1757 3.93493 17.2501 4.3125 17.25H10.7813V15.8125H4.3125C4.12363 15.8128 3.93656 15.7759 3.76201 15.7037C3.58746 15.6316 3.42886 15.5257 3.29532 15.3922C3.16177 15.2586 3.05589 15.1 2.98377 14.9255C2.91164 14.7509 2.87468 14.5639 2.875 14.375V5.75C2.87468 5.56113 2.91164 5.37406 2.98377 5.19951C3.05589 5.02496 3.16177 4.86636 3.29532 4.73282C3.42886 4.59927 3.58746 4.49339 3.76201 4.42127C3.93656 4.34914 4.12363 4.31218 4.3125 4.3125H18.6875C18.8764 4.31218 19.0634 4.34914 19.238 4.42127C19.4125 4.49339 19.5711 4.59927 19.7047 4.73282C19.8382 4.86636 19.9441 5.02496 20.0162 5.19951C20.0884 5.37406 20.1253 5.56113 20.125 5.75V14.375C20.1253 14.5639 20.0884 14.7509 20.0162 14.9255C19.9441 15.1 19.8382 15.2586 19.7047 15.3922C19.5711 15.5257 19.4125 15.6316 19.238 15.7037C19.0634 15.7759 18.8764 15.8128 18.6875 15.8125H14.375L11.5 20.8437ZM12.8743 8.41153L11.5 5.75L10.2063 8.41153L7.1875 8.83847L9.34375 10.7812L8.625 13.6562L11.5 12.0391L14.375 13.6562L13.6563 10.7812L15.8125 8.83847L12.8743 8.41153Z" fill="black"/>
</svg>
