<svg width="1511" height="1267" viewBox="0 0 1511 1267" fill="none" xmlns="http://www.w3.org/2000/svg">
<path d="M0 11.2119C159.167 -9.4548 481.4 -7.9882 547 105.212C629 246.712 516 479.712 701 479.712C881.84 479.712 798 270.212 748 270.212C727.282 270.212 647.607 199.712 483 461.212C409.667 577.712 371.5 812.424 500.5 1033.21C629.5 1254 1190.95 1288.07 1510.5 1254" stroke="black" stroke-opacity="0.75" stroke-width="2" stroke-linejoin="bevel" stroke-dasharray="24 24"/>
<path d="M696.25 411V360.324L704.532 368.196H686.41V353.6H715.602V411H696.25Z" fill="black"/>
<path d="M506.296 747V735.11L527.042 715.922C528.354 714.665 529.311 713.571 529.912 712.642C530.568 711.713 531.005 710.893 531.224 710.182C531.443 709.417 531.552 708.706 531.552 708.05C531.552 706.629 531.087 705.535 530.158 704.77C529.229 703.95 527.835 703.54 525.976 703.54C524.281 703.54 522.669 704.005 521.138 704.934C519.607 705.809 518.405 707.121 517.53 708.87L502.934 701.572C505.011 697.636 508.127 694.438 512.282 691.978C516.437 689.518 521.603 688.288 527.78 688.288C532.317 688.288 536.335 689.026 539.834 690.502C543.333 691.978 546.066 694.055 548.034 696.734C550.002 699.413 550.986 702.583 550.986 706.246C550.986 708.105 550.74 709.963 550.248 711.822C549.811 713.681 548.881 715.649 547.46 717.726C546.039 719.749 543.934 722.017 541.146 724.532L525.566 738.718L522.532 731.994H552.298V747H506.296Z" fill="black"/>
<path d="M731.14 1109.31C727.204 1109.31 723.213 1108.87 719.168 1108C715.123 1107.13 711.569 1105.84 708.508 1104.15L715.068 1089.88C717.528 1091.3 720.097 1092.37 722.776 1093.08C725.509 1093.73 728.079 1094.06 730.484 1094.06C732.671 1094.06 734.447 1093.7 735.814 1092.99C737.235 1092.23 737.946 1091.11 737.946 1089.63C737.946 1088.37 737.427 1087.42 736.388 1086.76C735.349 1086.05 733.6 1085.7 731.14 1085.7H723.514V1073.81L738.356 1058.72L740.078 1065.2H711.46V1050.6H754.264V1062.49L739.422 1077.58L730.156 1072.33H735.24C742.456 1072.33 747.95 1073.94 751.722 1077.17C755.494 1080.39 757.38 1084.55 757.38 1089.63C757.38 1092.91 756.451 1096.06 754.592 1099.06C752.788 1102.07 749.945 1104.53 746.064 1106.44C742.237 1108.36 737.263 1109.31 731.14 1109.31Z" fill="black"/>
<path d="M535.5 822.891C469.5 828.091 416 780.098 416 745.098C416 658.598 445 603.391 551.5 614.391C658 625.391 634.5 751.5 633 756C631.5 760.5 618 816.391 535.5 822.891Z" stroke="black" stroke-dasharray="22 22"/>
<path d="M748.499 1179C717.904 1185.12 667.832 1168.67 646.498 1156.5C598.498 1025.5 679.848 977 742.498 977C787.498 977 847.999 1030.5 834.498 1087.5C824.012 1131.78 790.999 1170.5 748.499 1179Z" stroke="black" stroke-dasharray="22 22"/>
</svg>
