<svg width="369" height="516" viewBox="0 0 369 516" fill="none" xmlns="http://www.w3.org/2000/svg">
<path d="M1.29748 254.925L2.80396 222.034L10.3769 191.586L19.517 160.913L34.5694 133.264L56.9903 108.929L71.3595 84.1858L91.645 62.3789L116.834 47.4687L147.089 38.833L166.137 25.0532L196.412 26.139L229.387 34.6354L264.009 50.4964L299.075 73.3519L320.147 108.015L339.551 148.106L356.52 192.193L370.385 238.647L380.627 285.696L386.861 331.567L388.895 374.54L386.759 413.106L380.625 445.987L370.835 472.205L357.838 491.109L342.193 502.365M327.349 9.6872L323.3 13.986L317.141 26.1139L309 46.0249L299.067 73.3211M299.067 73.3211L345.723 83.1338L347.081 83.609L389.349 98.5394L428.428 118.912L461.643 143.451L487.987 171.213L484.584 195.841L474.976 219.222L492.511 255.593L502.445 291.444L504.637 325.581L499.243 356.939L486.68 384.601L467.577 412.435L441.398 436.898L408.83 457.055L370.835 472.132L328.628 481.493L283.64 484.71L237.446 481.604L191.695 472.245L148.028 456.962L107.998 436.345L72.986 411.181L44.1309 382.409L22.311 351.09L8.0844 318.333L7.82717 288.573L15.5245 257.202L31.1701 225.213L54.4564 193.693L84.7557 163.779L121.09 136.593L162.235 113.162L206.719 94.3726L252.9 80.9303L299.07 73.3071L345.357 77.4248L388.459 87.3071L426.925 102.503L459.507 122.37L461.657 143.454L458.583 164.08L450.289 183.608L436.912 201.397L418.775 216.842M299.067 73.3211L251.063 69.4404L203.451 71.6973L157.944 79.9413L116.154 93.8111L79.4874 112.727L49.1114 135.928L25.8793 162.528L10.3406 191.549L8.91898 223.977L1.26115 254.888L7.80193 288.553L22.4284 321.919L44.8517 353.861L74.5087 383.224L110.507 408.946L151.66 430.033L196.559 445.691L243.593 455.321L291.07 458.566L337.28 455.357L380.603 445.881L419.577 430.572L452.941 410.072L479.725 385.196L499.227 356.877L511.038 326.124L516.32 295.223L513.734 262.507L503.12 228.993L484.585 195.768L458.57 164.004L425.83 134.853L387.415 109.396L344.652 88.5989L299.054 73.2453L251.248 75.0968L203.654 82.9017L158.002 96.3532L115.936 114.936L78.9261 137.924L48.196 164.421L24.6657 193.438L8.93097 223.921L15.5254 257.13L30.1431 290.056L52.5234 321.581L82.0942 350.59L117.966 376.008L158.957 396.886L203.651 412.399L250.46 421.981L297.705 425.279L343.678 422.211L386.761 412.961L425.507 397.955L458.674 377.821L485.281 353.361L504.641 325.494L516.34 295.199L520.262 263.487L517.556 232.219L513.967 201.495L503.839 173.204L503.365 171.427L503.292 171.221L493.656 144.756L477.637 117.94L462.335 97.3294L443.075 75.0989L430.01 64.049L419.389 55.0745L404.075 45.4338L403.755 45.206L391.993 37.7714L380.752 30.7236L354.955 18.6739L327.328 9.58058L298.63 3.69072L269.625 1.15055L241.105 2.05345L227.94 4.09945L214.185 6.28398L213.782 6.37435L195.849 9.19767L182.487 13.2595L166.064 18.2533L139.452 31.0696L117.1 43.9646L91.6095 62.2693L72.1178 82.7841L72.0031 82.9059L70.831 84.381L50.17 106.357L34.534 133.154L25.8661 162.453L24.6546 193.422L31.1598 225.123L45.3771 256.551L67.0479 286.642L95.605 314.329L130.19 338.601L169.67 358.548L212.689 373.417L257.731 382.643L303.172 385.897M1.2834 254.922L1.70886 285.272L4.76354 301.118L8.09252 318.364L16.0269 345.61L22.2897 360.044L29.5183 376.709L43.6537 397.672L50.1357 406.419L62.3817 425.263L78.9183 441.843L87.1796 450.132L111.427 467.677L117.181 471.849L151.43 489.587L188.767 502.692L227.878 510.699L267.397 513.306L305.932 510.468L342.173 502.317L353.095 497.947L374.908 489.213L393.705 476.737L408.81 457.08L419.579 430.631L425.486 398.052L426.177 360.306L421.477 318.625L411.443 274.45L396.362 229.403L376.773 185.159L353.405 143.403L327.165 105.683L299.053 73.3181L270.132 47.3923L241.449 28.6659L229.376 34.6185L219.253 42.1338L211.394 50.9861L206.054 60.9517L161.99 64.2614L121.623 73.7031L86.2624 88.8084L56.9762 108.926L49.1195 135.959L48.2062 164.51L54.4645 193.724L67.8636 222.644L88.1492 250.328L114.782 275.787L146.954 298.108L183.619 316.47L223.524 330.188L265.276 338.736L307.402 341.833L348.406 339.382L386.866 331.539L421.488 318.642L451.182 301.221L475.068 279.953L492.505 255.621L503.116 229.08L506.76 201.205L487.996 171.244L485.249 146.139L459.501 122.398L452.298 101.492L421.429 86.2165L412.181 70.4397L378.538 65.2606L340.427 66.1892L299.089 73.3549L260.302 91.9854L221.064 116.284L182.836 145.421L147.074 178.315L115.132 213.749L88.1573 250.359L67.0773 286.779L52.5417 321.701L44.8791 353.94L44.1501 382.457L50.1327 406.433L77.3402 433.676L110.329 457.481L148.008 476.961L189.106 491.368L232.173 500.178L275.671 503.067L318.052 499.973L357.847 491.067L393.719 476.74L403.169 471.258L424.538 457.587L441.392 436.926L452.968 410.15L458.679 377.939L458.144 341.233L451.2 301.21L437.948 259.247L418.775 216.842M418.775 216.842L394.329 175.574M418.775 216.842L396.39 229.409L370.419 238.625L341.675 244.135L311.107 245.716L279.733 243.291L248.634 236.91L218.864 226.812L191.427 213.337L167.249 196.974L147.095 178.29L131.574 157.941L121.112 136.627L115.96 115.029L116.176 93.845L121.638 73.7061L132.072 55.1968L169.98 49.79L211.409 50.9891L254.951 58.8921L299.081 73.324L343.573 71.7242L384.819 76.1093L421.449 86.1916L426.936 102.52L428.439 118.929L425.857 134.932L419.195 150.018L408.598 163.722L394.329 175.574M394.329 175.574L365.489 136.986L333.337 102.488L299.095 73.327L258.907 54.3403L219.284 42.1258L181.599 36.9574L169.994 49.793L162.019 64.2673L157.966 79.9752L158.026 96.4459L162.258 113.196L170.6 129.687L182.842 145.393L198.638 159.79L217.504 172.395L238.837 182.776L261.95 190.57L286.088 195.516L310.43 197.454L334.178 196.321L356.54 192.168L376.801 185.165L394.329 175.574ZM303.172 385.897L347.393 383.087L388.851 374.4L426.139 360.211L458.08 341.118L483.715 317.883L502.389 291.36L513.694 262.485L517.5 232.207L506.713 201.078L503.468 172.732L493.611 144.761L476.511 121.19L462.29 97.3345L440.299 81.2267L424.035 62.4131L403.973 45.427L380.706 30.7286L365.376 30.5683L346.286 37.6129L323.942 51.9104L299 73.2195L272.283 101.013L244.741 134.425M303.172 385.897L297.648 425.267L291.023 458.512L283.571 484.623L275.58 502.946L267.333 513.19L259.111 515.357M303.172 385.897L307.353 341.72L310.006 294.363L311.026 245.612L310.363 197.353L308.062 151.434L304.227 109.569L299.028 73.2254L292.702 43.5746L285.5 21.429L277.71 7.2426L269.605 1.1755M244.741 134.425L217.406 172.301L191.329 213.244L167.508 255.697L146.868 298.031L130.138 338.634L117.89 376.022L110.44 408.918L107.908 436.282L110.217 457.384L117.098 471.759L128.144 479.232L140.842 485.813L151.91 491.541L158.027 494.709L169.119 498.603L190.564 506.134L224.646 513.112L226.727 513.244L247.344 514.603L259.091 515.382L265.983 514.876L278.419 513.96L292.712 512.91L305.846 510.391L317.934 499.904L328.518 481.455L337.192 455.353L343.564 422.26L347.336 383.148L348.299 339.331L346.353 292.378L341.543 244.064L334.06 196.252L324.192 150.756L312.341 109.277L298.974 73.2724L284.641 43.8928L269.87 21.9788L255.177 8.00412L233.723 11.4293L213.915 17.4912L188.542 14.1098L166.05 24.9766L139.384 31.1136L116.744 47.4061L98.7937 66.786L86.1867 88.7487L79.434 112.701L78.8748 137.957L84.6882 163.75L96.8275 189.268L115.048 213.659L138.855 236.072L167.516 255.728L200.122 271.909L235.565 284.018L272.613 291.605L309.994 294.419L346.395 292.387L380.568 285.625L411.392 274.41L437.883 259.205L459.256 240.574L474.922 219.196M244.741 134.425L259.307 141.442L275.056 146.724L291.482 150.091L308.045 151.445L324.227 150.734L339.488 147.99L353.364 143.322L365.408 136.882L375.262 128.901L382.651 119.629L387.362 109.371L389.28 98.4518L388.389 87.2195L384.738 76.0047L378.463 65.1282L369.772 54.9254L335.946 60.8259L299.011 73.2364M244.741 134.425L231.826 125.902L220.972 116.163L212.496 105.509L206.647 94.299L203.583 82.8869L203.378 71.6236L205.987 60.8501M224.686 513.135L227.834 510.631L232.1 500.104L237.381 481.561L243.551 455.312L250.409 422.014L257.719 382.698L265.228 338.682L272.63 291.594L279.658 243.231L286.027 195.459L291.49 150.122L295.876 108.907L299.022 73.2534L277.076 45.1322L255.068 24.3664L233.755 11.4213L213.815 6.42513L188.573 14.1018L166.03 18.2753M513.916 201.528L503.788 173.237L485.193 146.055L476.519 121.221L452.246 101.394L440.307 81.2575L412.114 70.3381L399.423 55.5587L383.684 42.1957L358.943 45.688L330.42 56.0743L299.011 73.2364M299.011 73.2364L265.752 96.7501L231.841 125.905L198.558 159.685L167.168 196.869L138.864 236.03L114.715 275.686L95.5738 314.337L82.0377 350.579L74.4613 383.171L72.9163 411.093L77.2483 433.554L87.0988 450.027M299.011 73.2364L287.591 107.18L275.073 146.713L261.898 190.472L248.567 236.809L235.591 283.965L223.485 330.093L212.7 373.434L203.623 412.393L196.539 445.644L191.657 472.149L189.059 491.242L188.749 502.571L190.629 506.104M354.935 18.6988L345.075 21.0753L332.233 31.0243L316.738 48.5132L299.025 73.2394L279.665 104.535L259.335 141.448L238.785 182.678L218.797 226.71L200.149 271.856L183.567 316.371L169.667 358.562L158.915 396.877L151.64 429.985L147.986 456.88L147.961 476.835L151.411 489.466L158.078 494.676M333.285 102.389L338.343 98.4045L342.159 93.7503L344.641 88.5819L345.71 83.058L345.329 77.3461L343.535 71.6285L340.395 66.0656L335.992 60.8208L330.468 56.0553L323.987 51.9053L316.755 48.5022L308.976 45.9323L300.883 44.2739L292.716 43.5776L284.707 43.8628L277.093 45.1212L270.119 47.3166L263.974 50.3868L258.852 54.2557L254.912 58.7965L252.27 63.8874L251.032 69.3757L251.234 75.0939L252.87 80.8655L255.905 86.5083L260.255 91.8589L265.783 96.742L272.328 101.008L279.683 104.524L287.622 107.171L295.899 108.868L304.244 109.558L312.395 109.23L320.114 107.892L327.144 105.577L333.288 102.375M299.045 73.2144L300.886 44.26L301.399 22.7885L300.611 9.22859L298.613 3.70171M474.889 219.145L450.191 183.515L419.097 149.925L382.637 119.626L342.103 93.7384L298.986 73.2165L252.214 63.8755L250.775 63.7772L205.976 60.8332M442.984 75.109L424.007 62.4072L399.386 55.5219L369.747 54.9055L358.92 45.6542L346.271 37.6099L332.179 30.9984L317.06 26.0094L301.343 22.7766L285.464 21.3922L269.885 21.909L255.052 24.3047L241.388 28.5364L213.916 17.4184L196.33 25.9757L181.496 36.819L147.003 38.6836L132 55.0504L98.7975 66.6992L70.7776 84.3552L50.1166 106.331M374.85 489.069L392.483 478.1L397.18 475.178L403.083 471.108L424.452 457.437L437.775 444.978L449.292 434.196L467.499 412.316L479.666 385.125L485.199 353.329L483.693 317.849L474.996 279.806L459.232 240.481L436.823 201.262L408.509 163.587L375.257 128.857L338.296 98.3508L298.995 73.1746L255.857 86.4546L212.494 105.45L170.517 129.524L131.474 157.788L96.8202 189.165L67.7808 222.481L45.3156 256.494L30.0705 289.983L22.3648 321.804L22.2251 350.941L29.4072 376.54L43.5426 397.503L47.3193 403.536L50.483 408.097L62.2736 425.079M419.41 55.1811L404.096 45.5404L383.743 42.2664L365.442 30.6699L345.103 21.154L323.303 13.972L300.635 9.32124L277.737 7.32129L255.244 8.03293L241.101 2.14018L213.778 6.46108L195.845 9.2844" stroke="#4A4A4A" stroke-width="1.08501" stroke-linecap="round" stroke-linejoin="round"/>
</svg>
