<svg width="693" height="743" viewBox="0 0 693 743" fill="none" xmlns="http://www.w3.org/2000/svg">
<path d="M221.5 555C245.5 526 296.501 547.5 296.501 505C296.501 462.5 236.503 387.5 296.501 355.5C356.5 323.5 331.596 286.116 356.5 243C380.538 201.383 387.5 221.5 421.5 138.5C455.5 55.5 527.917 80.5 527.917 80.5C527.917 80.5 564.461 77.6698 590.5 65.5C620.661 51.4034 610.039 32.6368 637.64 14C656.133 1.51302 693 0 693 0V743H0C0 743 128.913 727.059 120.5 658.5C116.673 627.315 197.5 584 221.5 555Z" fill="#5D7DF2"/>
</svg>
