<svg width="16" height="16" viewBox="0 0 16 16" fill="none" xmlns="http://www.w3.org/2000/svg">
<path d="M13.105 2.00002H2.895C2.66236 1.99862 2.43842 2.08837 2.27114 2.25004C2.10386 2.41172 2.00653 2.63247 2 2.86502V13.1C2.00525 13.333 2.10218 13.5545 2.26974 13.7164C2.43731 13.8784 2.66198 13.9677 2.895 13.965H13.105C13.338 13.9677 13.5627 13.8784 13.7303 13.7164C13.8978 13.5545 13.9947 13.333 14 13.1V2.86502C13.9935 2.63247 13.8961 2.41172 13.7289 2.25004C13.5616 2.08837 13.3376 1.99862 13.105 2.00002ZM5.555 12.205H3.795V6.50002H5.555V12.205ZM4.695 5.70502C4.42478 5.7051 4.16524 5.59949 3.97184 5.41076C3.77845 5.22204 3.66653 4.96516 3.66 4.69502C3.65511 4.55778 3.67853 4.42101 3.72881 4.29322C3.77909 4.16544 3.85516 4.04938 3.95226 3.95227C4.04936 3.85517 4.16542 3.77911 4.29321 3.72883C4.42099 3.67855 4.55776 3.65512 4.695 3.66002C4.95642 3.67822 5.20121 3.79491 5.37995 3.98654C5.5587 4.17816 5.65811 4.43046 5.65811 4.69252C5.65811 4.95457 5.5587 5.20687 5.37995 5.3985C5.20121 5.59012 4.95642 5.70681 4.695 5.72502V5.70502ZM12.24 12.17H10.5V9.38002C10.5 8.71502 10.5 7.85002 9.57 7.85002C8.64 7.85002 8.5 8.58002 8.5 9.31502V12.14H6.72V6.50002H8.38V7.25002H8.415C8.58514 6.95453 8.83324 6.7115 9.13217 6.54748C9.4311 6.38347 9.76937 6.30478 10.11 6.32002C11.905 6.32002 12.24 7.52002 12.24 9.04502V12.17Z" fill="black"/>
</svg>
