<svg width="16" height="16" viewBox="0 0 16 16" fill="none" xmlns="http://www.w3.org/2000/svg">
<path fill-rule="evenodd" clip-rule="evenodd" d="M11.5 11H11.75C12.5518 10.9949 13.3234 10.6936 13.9165 10.154C14.5096 9.61446 14.8823 8.87469 14.9629 8.07694C15.0436 7.27919 14.8265 6.47979 14.3534 5.83243C13.8803 5.18506 13.1846 4.73544 12.4 4.57C12.1842 3.56326 11.6296 2.66099 10.8288 2.01373C10.0281 1.36648 9.02963 1.0134 8.00001 1.0134C6.97039 1.0134 5.9719 1.36648 5.17116 2.01373C4.37042 2.66099 3.81586 3.56326 3.60001 4.57C2.81545 4.73544 2.11974 5.18506 1.64663 5.83243C1.17353 6.47979 0.956428 7.27919 1.03707 8.07694C1.11771 8.87469 1.49041 9.61446 2.0835 10.154C2.67659 10.6936 3.44821 10.9949 4.25001 11H4.50001V10H4.25001C3.65327 10.0239 3.07149 9.80971 2.63266 9.40463C2.19382 8.99955 1.93388 8.43674 1.91001 7.84C1.88614 7.24326 2.1003 6.66148 2.50538 6.22265C2.91045 5.78381 3.47327 5.52387 4.07001 5.5H4.50001L4.51001 5.09C4.62093 4.24822 5.03407 3.47547 5.67246 2.91569C6.31085 2.35591 7.13095 2.04727 7.98001 2.04727C8.82906 2.04727 9.64917 2.35591 10.2876 2.91569C10.9259 3.47547 11.3391 4.24822 11.45 5.09L11.5 5.5H11.93C12.5267 5.52387 13.0896 5.78381 13.4946 6.22265C13.8997 6.66148 14.1139 7.24326 14.09 7.84C14.0661 8.43674 13.8062 8.99955 13.3674 9.40463C12.9285 9.80971 12.3467 10.0239 11.75 10H11.5V11ZM8.5 7V13.085L9.795 11.795L10.5 12.5L8 15L5.5 12.5L6.205 11.795L7.5 13.085V7H8.5Z" fill="white"/>
</svg>
