<svg width="470" height="430" viewBox="0 0 470 430" fill="none" xmlns="http://www.w3.org/2000/svg">
<circle cx="57" cy="28.3184" r="10" fill="#FF3D3D"/>
<circle cx="92" cy="28.3184" r="10" fill="#FFF627"/>
<circle cx="127" cy="28.3184" r="10" fill="#61D12C"/>
<rect x="1" y="1" width="468" height="401" rx="47" stroke="black" stroke-width="2"/>
<rect x="1" y="55.9541" width="468" height="346.045" rx="47" stroke="black" stroke-width="2"/>
<line x1="349" y1="17.5684" x2="413" y2="17.5684" stroke="black" stroke-width="1.5"/>
<line x1="349" y1="26.7275" x2="413" y2="26.7275" stroke="black" stroke-width="1.5"/>
<line x1="349" y1="35.8867" x2="413" y2="35.8867" stroke="black" stroke-width="1.5"/>
<path d="M207.344 82.756V207H182.424V154.134H129.202V207H104.282V82.756H129.202V133.842H182.424V82.756H207.344Z" fill="#3658D3"/>
<path d="M344.414 359L299.202 303.642V359H274.282V234.756H299.202V290.47L344.414 234.756H374.496L323.232 296.344L375.92 359H344.414Z" fill="#3658D3"/>
<path d="M315.402 87.5C316.557 85.5 319.443 85.5 320.598 87.5L387.282 203C388.437 205 386.993 207.5 384.684 207.5H251.316C249.007 207.5 247.563 205 248.718 203L315.402 87.5Z" fill="#3658D3"/>
<path d="M223.409 324.767C217.612 337.769 207.676 348.488 195.15 355.253C182.623 362.017 168.211 364.448 154.159 362.166C140.108 359.883 127.205 353.016 117.464 342.635C107.723 332.254 101.69 318.941 100.306 304.772C98.9213 290.604 102.263 276.375 109.811 264.305C117.358 252.234 128.687 242.999 142.031 238.04C155.375 233.081 169.985 232.676 183.584 236.888C197.183 241.1 209.006 249.693 217.21 261.327L164.5 298.5L223.409 324.767Z" fill="#3658D3"/>
</svg>
