<svg width="18" height="18" viewBox="0 0 18 18" fill="none" xmlns="http://www.w3.org/2000/svg">
<path fill-rule="evenodd" clip-rule="evenodd" d="M11.7276 3.50561C11.0158 3.4731 10.8023 3.46624 9 3.46624V3.46618C7.19769 3.46618 6.98417 3.4731 6.27244 3.50556C5.8444 3.51065 5.42042 3.58927 5.01902 3.73798C4.72792 3.85031 4.46355 4.02233 4.24293 4.24296C4.0223 4.4636 3.8503 4.72797 3.73798 5.01907C3.58927 5.42048 3.51065 5.84446 3.50556 6.27249C3.47304 6.98423 3.46618 7.19775 3.46618 9.00006C3.46618 10.8024 3.4731 11.0159 3.50556 11.7276C3.51065 12.1557 3.58927 12.5796 3.73798 12.981C3.8503 13.2721 4.02231 13.5365 4.24294 13.7571C4.46356 13.9777 4.72792 14.1498 5.01902 14.2621C5.42042 14.4108 5.8444 14.4894 6.27244 14.4945C6.98411 14.527 7.19753 14.5339 9 14.5339C10.8025 14.5339 11.0159 14.527 11.7276 14.4945C12.1556 14.4894 12.5796 14.4108 12.981 14.2621C13.2721 14.1498 13.5364 13.9777 13.7571 13.7571C13.9777 13.5365 14.1497 13.2721 14.262 12.981C14.4107 12.5796 14.4893 12.1557 14.4944 11.7276C14.527 11.0159 14.5338 10.8024 14.5338 9.00006C14.5338 7.19775 14.5269 6.98423 14.4944 6.27249C14.4893 5.84446 14.4107 5.42048 14.262 5.01907C14.1497 4.72798 13.9777 4.46362 13.7571 4.24299C13.5364 4.02237 13.2721 3.85036 12.981 3.73804C12.5796 3.58933 12.1556 3.51071 11.7276 3.50561ZM6.21697 2.29061C6.93692 2.25776 7.16681 2.25 9 2.25C10.8332 2.25 11.0631 2.25776 11.7827 2.29089C12.3427 2.30211 12.8967 2.4082 13.4213 2.60466C13.8697 2.77805 14.277 3.04322 14.6169 3.38317C14.9569 3.72311 15.2222 4.13034 15.3956 4.57875C15.5921 5.10317 15.6981 5.65709 15.7094 6.21697C15.7422 6.93692 15.75 7.16681 15.75 9C15.75 10.8332 15.7422 11.0631 15.7097 11.7827C15.6985 12.3427 15.5924 12.8967 15.3959 13.4213C15.2225 13.8697 14.9573 14.277 14.6173 14.617C14.2773 14.957 13.87 15.2222 13.4215 15.3956C12.897 15.5921 12.343 15.6982 11.783 15.7094C11.0631 15.7422 10.8332 15.75 9 15.75C7.16681 15.75 6.93692 15.7422 6.21726 15.7097C5.65728 15.6985 5.10325 15.5924 4.57875 15.3959C4.13029 15.2225 3.72301 14.9573 3.38301 14.6173C3.04301 14.2773 2.7778 13.87 2.60438 13.4215C2.40792 12.897 2.30183 12.343 2.29061 11.783C2.25776 11.0631 2.25 10.8332 2.25 9C2.25 7.16681 2.25776 6.93692 2.29061 6.21726C2.30182 5.65728 2.40791 5.10325 2.60438 4.57875C2.7778 4.13029 3.04301 3.72301 3.38301 3.38301C3.72301 3.04301 4.13029 2.7778 4.57875 2.60438C5.10317 2.40794 5.65709 2.30185 6.21697 2.29061ZM12.6031 6.20679C13.0505 6.20679 13.4131 5.84414 13.4131 5.39679C13.4131 4.94944 13.0505 4.58679 12.6031 4.58679C12.1558 4.58679 11.7931 4.94944 11.7931 5.39679C11.7931 5.84414 12.1558 6.20679 12.6031 6.20679ZM8.99998 5.53381C8.31443 5.53381 7.64426 5.7371 7.07424 6.11798C6.50423 6.49886 6.05995 7.04021 5.7976 7.67358C5.53525 8.30695 5.4666 9.0039 5.60035 9.67628C5.73409 10.3487 6.06422 10.9663 6.54898 11.4511C7.03375 11.9358 7.65137 12.2659 8.32375 12.3997C8.99614 12.5334 9.69308 12.4648 10.3265 12.2024C10.9598 11.9401 11.5012 11.4958 11.8821 10.9258C12.2629 10.3558 12.4662 9.68561 12.4662 9.00005C12.4662 8.08075 12.101 7.1991 11.451 6.54905C10.8009 5.89901 9.91929 5.53381 8.99998 5.53381ZM8.99998 11.2501C8.55498 11.2501 8.11996 11.1181 7.74995 10.8709C7.37994 10.6236 7.09155 10.2722 6.92125 9.86109C6.75096 9.44995 6.7064 8.99756 6.79322 8.5611C6.88003 8.12464 7.09433 7.72373 7.40899 7.40906C7.72366 7.09439 8.12457 6.8801 8.56103 6.79328C8.99749 6.70647 9.44989 6.75102 9.86102 6.92132C10.2722 7.09162 10.6236 7.38001 10.8708 7.75002C11.118 8.12003 11.25 8.55504 11.25 9.00005C11.25 9.59679 11.0129 10.1691 10.591 10.591C10.169 11.013 9.59672 11.2501 8.99998 11.2501Z" fill="black"/>
</svg>
