<svg width="18" height="18" viewBox="0 0 18 18" fill="none" xmlns="http://www.w3.org/2000/svg">
<path fill-rule="evenodd" clip-rule="evenodd" d="M4.25504 11.2789L9.00001 16.875L13.7469 11.2765C13.7721 11.2467 13.9408 11.0249 13.9408 11.0249L13.9417 11.0235C14.7519 9.95615 15.1895 8.6525 15.1875 7.3125C15.1875 5.67147 14.5356 4.09766 13.3752 2.93728C12.2148 1.7769 10.641 1.125 9.00001 1.125C7.35898 1.125 5.78516 1.7769 4.62478 2.93728C3.4644 4.09766 2.81251 5.67147 2.81251 7.3125C2.81061 8.65305 3.24856 9.9572 4.05917 11.0249C4.05917 11.0249 4.22809 11.2467 4.25504 11.2789ZM4.98406 10.3827C4.96801 10.3615 4.9572 10.3473 4.95704 10.3472C4.2944 9.47437 3.93626 8.40835 3.93751 7.3125C3.93751 5.96984 4.47088 4.68217 5.42028 3.73277C6.36968 2.78337 7.65735 2.25 9.00001 2.25C10.3427 2.25 11.6303 2.78337 12.5797 3.73277C13.5291 4.68217 14.0625 5.96984 14.0625 7.3125C14.0638 8.40776 13.7059 9.47322 13.0437 10.3456C13.0434 10.3461 12.9116 10.5203 12.8869 10.5513L9.00001 15.1357L5.11825 10.5578C5.09688 10.5312 5.02413 10.4354 4.98406 10.3827ZM7.43746 9.65101C7.89997 9.96005 8.44374 10.125 9 10.125C9.74566 10.1242 10.4605 9.82756 10.9878 9.3003C11.5151 8.77304 11.8117 8.05816 11.8125 7.3125C11.8125 6.75624 11.6476 6.21247 11.3385 5.74996C11.0295 5.28745 10.5902 4.92696 10.0763 4.71409C9.56238 4.50122 8.99688 4.44552 8.45131 4.55404C7.90574 4.66256 7.4046 4.93043 7.01126 5.32376C6.61793 5.7171 6.35006 6.21824 6.24154 6.76381C6.13302 7.30938 6.18872 7.87488 6.40159 8.3888C6.61446 8.90272 6.97495 9.34197 7.43746 9.65101ZM8.06248 5.9094C8.33998 5.72397 8.66625 5.625 9 5.625C9.4474 5.62549 9.87634 5.80344 10.1927 6.1198C10.5091 6.43616 10.687 6.8651 10.6875 7.3125C10.6875 7.64626 10.5885 7.97252 10.4031 8.25003C10.2177 8.52753 9.95413 8.74382 9.64578 8.87155C9.33743 8.99927 8.99813 9.03269 8.67079 8.96758C8.34344 8.90246 8.04276 8.74174 7.80676 8.50574C7.57076 8.26974 7.41004 7.96906 7.34493 7.64172C7.27981 7.31437 7.31323 6.97507 7.44095 6.66672C7.56868 6.35837 7.78497 6.09482 8.06248 5.9094Z" fill="black"/>
</svg>
